# xmcd
#
# Track frame offsets: 
#        150
#        18301
#        30409
#        43268
#        57879
#        73422
#        87827
#        100933
#        113308
#        142347
#        158082
#        172161
#        187633
#        198967
#        211092
#
# Disc length: 2927 seconds
#
# Revision: 0
# Processed by: cddbd v1.5.2PL0 Copyright (c) Steve Scherf et al.
# Submitted via: ExactAudioCopy v0.95b3
#
DISCID=c70b6d0f
DTITLE=Ryan Hartt and The Blue Hearts - Yeah Man!
DYEAR=2005
DGENRE=Blues
TTITLE0=Rock All Night
TTITLE1=Believe What I Said
TTITLE2=Oh Espanada
TTITLE3=Boogie Guitar
TTITLE4=Drop Anchor
TTITLE5=Two Gizzards And A Neck
TTITLE6=What's The Matter Baby
TTITLE7=I Thought You Went
TTITLE8=Hangover Blues
TTITLE9=Deep To Left
TTITLE10=Doubt My Love
TTITLE11=Do Unto Others
TTITLE12=Yes It Is
TTITLE13=Too Much Love
TTITLE14=Sonny Boy Nighthawk
EXTD=
EXTT0=
EXTT1=
EXTT2=
EXTT3=
EXTT4=
EXTT5=
EXTT6=
EXTT7=
EXTT8=
EXTT9=
EXTT10=
EXTT11=
EXTT12=
EXTT13=
EXTT14=
PLAYORDER=
